<mxfile host="app.diagrams.net" agent="Mozilla/5.0 (Windows NT 10.0; Win64; x64) AppleWebKit/537.36 (KHTML, like Gecko) Chrome/132.0.0.0 Safari/537.36" version="26.0.10">
  <diagram name="Page-1" id="pNHr_DxPwGbQNu9hHItp">
    <mxGraphModel dx="1034" dy="446" grid="1" gridSize="10" guides="1" tooltips="1" connect="1" arrows="1" fold="1" page="1" pageScale="1" pageWidth="850" pageHeight="1100" math="0" shadow="0">
      <root>
        <mxCell id="0" />
        <mxCell id="1" parent="0" />
        <mxCell id="z49qFliSlAW_3DKOysw4-61" style="edgeStyle=orthogonalEdgeStyle;rounded=0;orthogonalLoop=1;jettySize=auto;html=1;exitX=1;exitY=0.25;exitDx=0;exitDy=0;entryX=1;entryY=0.5;entryDx=0;entryDy=0;" edge="1" parent="1" source="z49qFliSlAW_3DKOysw4-1" target="z49qFliSlAW_3DKOysw4-45">
          <mxGeometry relative="1" as="geometry">
            <mxPoint x="660" y="210" as="targetPoint" />
            <Array as="points">
              <mxPoint x="640" y="35" />
              <mxPoint x="640" y="220" />
            </Array>
          </mxGeometry>
        </mxCell>
        <mxCell id="z49qFliSlAW_3DKOysw4-62" style="edgeStyle=orthogonalEdgeStyle;rounded=0;orthogonalLoop=1;jettySize=auto;html=1;exitX=0;exitY=0.25;exitDx=0;exitDy=0;entryX=0;entryY=0.25;entryDx=0;entryDy=0;" edge="1" parent="1" source="z49qFliSlAW_3DKOysw4-1" target="z49qFliSlAW_3DKOysw4-17">
          <mxGeometry relative="1" as="geometry">
            <Array as="points">
              <mxPoint x="10" y="35" />
              <mxPoint x="10" y="405" />
            </Array>
          </mxGeometry>
        </mxCell>
        <mxCell id="z49qFliSlAW_3DKOysw4-1" value="EMPLOYEE" style="rounded=0;whiteSpace=wrap;html=1;" vertex="1" parent="1">
          <mxGeometry x="200" y="20" width="120" height="60" as="geometry" />
        </mxCell>
        <mxCell id="z49qFliSlAW_3DKOysw4-2" value="ID(PK)" style="ellipse;whiteSpace=wrap;html=1;" vertex="1" parent="1">
          <mxGeometry x="20" y="120" width="70" height="50" as="geometry" />
        </mxCell>
        <mxCell id="z49qFliSlAW_3DKOysw4-3" value="NAME" style="ellipse;whiteSpace=wrap;html=1;" vertex="1" parent="1">
          <mxGeometry x="100" y="120" width="70" height="50" as="geometry" />
        </mxCell>
        <mxCell id="z49qFliSlAW_3DKOysw4-4" value="AGE" style="ellipse;whiteSpace=wrap;html=1;" vertex="1" parent="1">
          <mxGeometry x="180" y="120" width="70" height="50" as="geometry" />
        </mxCell>
        <mxCell id="z49qFliSlAW_3DKOysw4-5" value="SALARY(FK)" style="ellipse;whiteSpace=wrap;html=1;" vertex="1" parent="1">
          <mxGeometry x="260" y="120" width="80" height="50" as="geometry" />
        </mxCell>
        <mxCell id="z49qFliSlAW_3DKOysw4-6" value="DEPARTMENT_NAME(FK)" style="ellipse;whiteSpace=wrap;html=1;" vertex="1" parent="1">
          <mxGeometry x="475" y="120" width="155" height="60" as="geometry" />
        </mxCell>
        <mxCell id="z49qFliSlAW_3DKOysw4-7" value="DESIGNATION" style="ellipse;whiteSpace=wrap;html=1;" vertex="1" parent="1">
          <mxGeometry x="350" y="120" width="110" height="50" as="geometry" />
        </mxCell>
        <mxCell id="z49qFliSlAW_3DKOysw4-17" value="DEPARTMENT_TABLE" style="rounded=0;whiteSpace=wrap;html=1;" vertex="1" parent="1">
          <mxGeometry x="200" y="390" width="160" height="60" as="geometry" />
        </mxCell>
        <mxCell id="z49qFliSlAW_3DKOysw4-18" value="DEPARTMENT_NAME(PK)" style="ellipse;whiteSpace=wrap;html=1;" vertex="1" parent="1">
          <mxGeometry x="40" y="480" width="160" height="80" as="geometry" />
        </mxCell>
        <mxCell id="z49qFliSlAW_3DKOysw4-19" value="HOD" style="ellipse;whiteSpace=wrap;html=1;" vertex="1" parent="1">
          <mxGeometry x="425" y="470" width="160" height="80" as="geometry" />
        </mxCell>
        <mxCell id="z49qFliSlAW_3DKOysw4-25" value="" style="endArrow=classic;html=1;rounded=0;exitX=0.5;exitY=1;exitDx=0;exitDy=0;entryX=0.5;entryY=0;entryDx=0;entryDy=0;" edge="1" parent="1" source="z49qFliSlAW_3DKOysw4-1" target="z49qFliSlAW_3DKOysw4-5">
          <mxGeometry width="50" height="50" relative="1" as="geometry">
            <mxPoint x="320" y="120" as="sourcePoint" />
            <mxPoint x="400" y="100" as="targetPoint" />
          </mxGeometry>
        </mxCell>
        <mxCell id="z49qFliSlAW_3DKOysw4-26" value="" style="endArrow=classic;html=1;rounded=0;entryX=0.5;entryY=0;entryDx=0;entryDy=0;exitX=0;exitY=0.5;exitDx=0;exitDy=0;" edge="1" parent="1" source="z49qFliSlAW_3DKOysw4-1" target="z49qFliSlAW_3DKOysw4-2">
          <mxGeometry width="50" height="50" relative="1" as="geometry">
            <mxPoint x="60" y="70" as="sourcePoint" />
            <mxPoint x="110" y="20" as="targetPoint" />
          </mxGeometry>
        </mxCell>
        <mxCell id="z49qFliSlAW_3DKOysw4-27" value="" style="endArrow=classic;html=1;rounded=0;entryX=0.5;entryY=0;entryDx=0;entryDy=0;exitX=0;exitY=1;exitDx=0;exitDy=0;" edge="1" parent="1" source="z49qFliSlAW_3DKOysw4-1" target="z49qFliSlAW_3DKOysw4-3">
          <mxGeometry width="50" height="50" relative="1" as="geometry">
            <mxPoint x="100" y="60" as="sourcePoint" />
            <mxPoint x="150" y="10" as="targetPoint" />
          </mxGeometry>
        </mxCell>
        <mxCell id="z49qFliSlAW_3DKOysw4-28" value="" style="endArrow=classic;html=1;rounded=0;entryX=0.5;entryY=0;entryDx=0;entryDy=0;exitX=0.372;exitY=1.022;exitDx=0;exitDy=0;exitPerimeter=0;" edge="1" parent="1" source="z49qFliSlAW_3DKOysw4-1" target="z49qFliSlAW_3DKOysw4-4">
          <mxGeometry width="50" height="50" relative="1" as="geometry">
            <mxPoint x="65" y="60" as="sourcePoint" />
            <mxPoint x="115" y="10" as="targetPoint" />
          </mxGeometry>
        </mxCell>
        <mxCell id="z49qFliSlAW_3DKOysw4-29" value="" style="endArrow=classic;html=1;rounded=0;exitX=0.75;exitY=1;exitDx=0;exitDy=0;entryX=0.5;entryY=0;entryDx=0;entryDy=0;" edge="1" parent="1" source="z49qFliSlAW_3DKOysw4-1" target="z49qFliSlAW_3DKOysw4-7">
          <mxGeometry width="50" height="50" relative="1" as="geometry">
            <mxPoint x="320" y="120" as="sourcePoint" />
            <mxPoint x="370" y="70" as="targetPoint" />
          </mxGeometry>
        </mxCell>
        <mxCell id="z49qFliSlAW_3DKOysw4-30" value="" style="endArrow=classic;html=1;rounded=0;entryX=0.364;entryY=0;entryDx=0;entryDy=0;entryPerimeter=0;" edge="1" parent="1" target="z49qFliSlAW_3DKOysw4-6">
          <mxGeometry width="50" height="50" relative="1" as="geometry">
            <mxPoint x="320" y="60" as="sourcePoint" />
            <mxPoint x="370" y="10" as="targetPoint" />
          </mxGeometry>
        </mxCell>
        <mxCell id="z49qFliSlAW_3DKOysw4-45" value="SALARY_TABLE" style="rounded=0;whiteSpace=wrap;html=1;" vertex="1" parent="1">
          <mxGeometry x="210" y="190" width="120" height="60" as="geometry" />
        </mxCell>
        <mxCell id="z49qFliSlAW_3DKOysw4-46" value="SALARY(PK)" style="ellipse;whiteSpace=wrap;html=1;" vertex="1" parent="1">
          <mxGeometry x="30" y="290" width="70" height="50" as="geometry" />
        </mxCell>
        <mxCell id="z49qFliSlAW_3DKOysw4-47" value="BASIC" style="ellipse;whiteSpace=wrap;html=1;" vertex="1" parent="1">
          <mxGeometry x="110" y="290" width="70" height="50" as="geometry" />
        </mxCell>
        <mxCell id="z49qFliSlAW_3DKOysw4-48" value="HRA" style="ellipse;whiteSpace=wrap;html=1;" vertex="1" parent="1">
          <mxGeometry x="190" y="290" width="70" height="50" as="geometry" />
        </mxCell>
        <mxCell id="z49qFliSlAW_3DKOysw4-49" value="TA" style="ellipse;whiteSpace=wrap;html=1;" vertex="1" parent="1">
          <mxGeometry x="270" y="290" width="80" height="50" as="geometry" />
        </mxCell>
        <mxCell id="z49qFliSlAW_3DKOysw4-50" value="PF" style="ellipse;whiteSpace=wrap;html=1;" vertex="1" parent="1">
          <mxGeometry x="485" y="290" width="110" height="50" as="geometry" />
        </mxCell>
        <mxCell id="z49qFliSlAW_3DKOysw4-51" value="DA" style="ellipse;whiteSpace=wrap;html=1;" vertex="1" parent="1">
          <mxGeometry x="360" y="290" width="110" height="50" as="geometry" />
        </mxCell>
        <mxCell id="z49qFliSlAW_3DKOysw4-52" value="" style="endArrow=classic;html=1;rounded=0;exitX=0.5;exitY=1;exitDx=0;exitDy=0;entryX=0.5;entryY=0;entryDx=0;entryDy=0;" edge="1" parent="1" source="z49qFliSlAW_3DKOysw4-45" target="z49qFliSlAW_3DKOysw4-49">
          <mxGeometry width="50" height="50" relative="1" as="geometry">
            <mxPoint x="330" y="290" as="sourcePoint" />
            <mxPoint x="410" y="270" as="targetPoint" />
          </mxGeometry>
        </mxCell>
        <mxCell id="z49qFliSlAW_3DKOysw4-53" value="" style="endArrow=classic;html=1;rounded=0;entryX=0.5;entryY=0;entryDx=0;entryDy=0;exitX=0;exitY=0.5;exitDx=0;exitDy=0;" edge="1" parent="1" source="z49qFliSlAW_3DKOysw4-45" target="z49qFliSlAW_3DKOysw4-46">
          <mxGeometry width="50" height="50" relative="1" as="geometry">
            <mxPoint x="70" y="240" as="sourcePoint" />
            <mxPoint x="120" y="190" as="targetPoint" />
          </mxGeometry>
        </mxCell>
        <mxCell id="z49qFliSlAW_3DKOysw4-54" value="" style="endArrow=classic;html=1;rounded=0;entryX=0.5;entryY=0;entryDx=0;entryDy=0;exitX=0;exitY=1;exitDx=0;exitDy=0;" edge="1" parent="1" source="z49qFliSlAW_3DKOysw4-45" target="z49qFliSlAW_3DKOysw4-47">
          <mxGeometry width="50" height="50" relative="1" as="geometry">
            <mxPoint x="110" y="230" as="sourcePoint" />
            <mxPoint x="160" y="180" as="targetPoint" />
          </mxGeometry>
        </mxCell>
        <mxCell id="z49qFliSlAW_3DKOysw4-55" value="" style="endArrow=classic;html=1;rounded=0;entryX=0.5;entryY=0;entryDx=0;entryDy=0;exitX=0.372;exitY=1.022;exitDx=0;exitDy=0;exitPerimeter=0;" edge="1" parent="1" source="z49qFliSlAW_3DKOysw4-45" target="z49qFliSlAW_3DKOysw4-48">
          <mxGeometry width="50" height="50" relative="1" as="geometry">
            <mxPoint x="75" y="230" as="sourcePoint" />
            <mxPoint x="125" y="180" as="targetPoint" />
          </mxGeometry>
        </mxCell>
        <mxCell id="z49qFliSlAW_3DKOysw4-56" value="" style="endArrow=classic;html=1;rounded=0;exitX=0.75;exitY=1;exitDx=0;exitDy=0;entryX=0.5;entryY=0;entryDx=0;entryDy=0;" edge="1" parent="1" source="z49qFliSlAW_3DKOysw4-45" target="z49qFliSlAW_3DKOysw4-51">
          <mxGeometry width="50" height="50" relative="1" as="geometry">
            <mxPoint x="330" y="290" as="sourcePoint" />
            <mxPoint x="380" y="240" as="targetPoint" />
          </mxGeometry>
        </mxCell>
        <mxCell id="z49qFliSlAW_3DKOysw4-57" value="" style="endArrow=classic;html=1;rounded=0;entryX=0.364;entryY=0;entryDx=0;entryDy=0;entryPerimeter=0;" edge="1" parent="1" target="z49qFliSlAW_3DKOysw4-50">
          <mxGeometry width="50" height="50" relative="1" as="geometry">
            <mxPoint x="330" y="230" as="sourcePoint" />
            <mxPoint x="380" y="180" as="targetPoint" />
          </mxGeometry>
        </mxCell>
        <mxCell id="z49qFliSlAW_3DKOysw4-58" value="" style="endArrow=classic;html=1;rounded=0;entryX=0.333;entryY=0.042;entryDx=0;entryDy=0;entryPerimeter=0;exitX=0;exitY=0.5;exitDx=0;exitDy=0;" edge="1" parent="1" source="z49qFliSlAW_3DKOysw4-17" target="z49qFliSlAW_3DKOysw4-18">
          <mxGeometry width="50" height="50" relative="1" as="geometry">
            <mxPoint x="120" y="470" as="sourcePoint" />
            <mxPoint x="170" y="420" as="targetPoint" />
          </mxGeometry>
        </mxCell>
        <mxCell id="z49qFliSlAW_3DKOysw4-59" value="" style="endArrow=classic;html=1;rounded=0;entryX=0.273;entryY=0.017;entryDx=0;entryDy=0;entryPerimeter=0;exitX=1;exitY=0.5;exitDx=0;exitDy=0;" edge="1" parent="1" source="z49qFliSlAW_3DKOysw4-17" target="z49qFliSlAW_3DKOysw4-19">
          <mxGeometry width="50" height="50" relative="1" as="geometry">
            <mxPoint x="280" y="470" as="sourcePoint" />
            <mxPoint x="330" y="420" as="targetPoint" />
          </mxGeometry>
        </mxCell>
      </root>
    </mxGraphModel>
  </diagram>
</mxfile>
